<svg id="svg" version="1.1" xmlns="http://www.w3.org/2000/svg" xmlns:xlink="http://www.w3.org/1999/xlink"  viewBox="0, 0, 400,400">
    <g id="svgg" >
        <path id="path0" d="M140.600 45.493 C 139.095 46.255,102.790 82.353,101.067 84.800 C 99.194 87.460,99.196 91.745,101.071 94.400 C 101.770 95.390,121.601 115.446,145.140 138.968 L 187.938 181.737 209.713 159.968 C 221.689 147.996,232.653 137.089,234.077 135.731 L 236.667 133.262 193.033 89.662 C 160.875 57.529,148.993 45.897,147.851 45.431 C 145.934 44.650,142.202 44.681,140.600 45.493 M243.600 140.200 C 247.225 143.830,250.281 146.800,250.391 146.800 C 250.501 146.800,247.625 143.830,244.000 140.200 C 240.375 136.570,237.319 133.600,237.209 133.600 C 237.099 133.600,239.975 136.570,243.600 140.200 " stroke="none" fill="#00c395" fill-rule="evenodd">

        </path>

        <path id="path2" d="M225.734 172.100 L 201.271 196.600 201.287 199.800 C 201.314 205.466,204.742 201.671,151.382 255.042 C 94.129 312.307,98.449 307.431,100.187 312.826 C 101.164 315.858,139.028 353.885,141.894 354.711 C 144.379 355.429,146.112 355.312,148.027 354.300 C 150.379 353.056,297.274 206.193,298.482 203.877 C 299.601 201.731,299.657 198.408,298.609 196.244 C 297.924 194.829,251.184 147.600,250.468 147.600 C 250.319 147.600,239.189 158.625,225.734 172.100 " stroke="none" fill="#76ffd9" fill-rule="evenodd">

        </path>

        <path id="path4" d="M212.553 157.129 C 199.599 170.070,188.772 180.937,188.493 181.279 C 188.059 181.810,188.784 182.702,193.509 187.450 C 200.028 194.001,200.800 195.309,200.800 199.800 C 200.800 205.209,204.117 201.551,150.199 255.600 C 123.314 282.550,100.889 305.320,100.365 306.199 C 99.139 308.256,99.048 311.859,100.161 314.200 C 101.233 316.454,138.416 353.611,140.600 354.610 C 143.141 355.773,145.941 355.847,148.030 354.806 C 150.220 353.714,296.525 207.689,298.514 204.609 C 300.395 201.698,300.374 198.276,298.457 195.289 C 296.978 192.985,237.437 133.600,236.606 133.600 C 236.331 133.600,225.507 144.188,212.553 157.129 M274.297 171.144 C 299.247 196.079,299.364 196.214,299.359 200.000 C 299.354 203.922,301.635 201.527,223.668 279.477 C 148.570 354.558,147.903 355.200,144.956 355.200 C 141.120 355.200,141.507 355.526,120.544 334.611 C 98.385 312.503,98.869 313.115,99.995 308.626 C 100.744 305.637,99.505 306.930,151.382 255.042 C 204.742 201.671,201.314 205.466,201.287 199.800 L 201.271 196.600 225.734 172.100 C 239.189 158.625,250.319 147.600,250.468 147.600 C 250.617 147.600,261.340 158.195,274.297 171.144 " stroke="none" fill="#5de0bf" fill-rule="evenodd">

        </path>
    </g>
</svg>