<svg xmlns="http://www.w3.org/2000/svg"  viewBox="0 0 312.565 419.673">
  <g id="Group_1" data-name="Group 1" transform="translate(-390 -309)">
    <path id="path0" d="M140.6,45.493c-1.505.762-37.81,36.86-39.533,39.307a8.9,8.9,0,0,0,0,9.6c.7.99,20.53,21.046,44.069,44.568l42.8,42.769,21.775-21.769c11.976-11.972,22.94-22.879,24.364-24.237l2.59-2.469-43.634-43.6c-32.158-32.133-44.04-43.765-45.182-44.231a11.273,11.273,0,0,0-7.251.062m103,94.707c3.625,3.63,6.681,6.6,6.791,6.6s-2.766-2.97-6.391-6.6-6.681-6.6-6.791-6.6,2.766,2.97,6.391,6.6" transform="translate(689.91 664.538) rotate(180)" fill="#00c395" fill-rule="evenodd"/>
    <path id="path2" d="M225.734,172.1l-24.463,24.5.016,3.2c.027,5.666,3.455,1.871-49.9,55.242-57.253,57.265-52.933,52.389-51.2,57.784.977,3.032,38.841,41.059,41.707,41.885a7.449,7.449,0,0,0,6.133-.411c2.352-1.244,149.247-148.107,150.455-150.423a9.371,9.371,0,0,0,.127-7.633c-.685-1.415-47.425-48.644-48.141-48.644-.149,0-11.279,11.025-24.734,24.5" transform="translate(689.91 664.538) rotate(180)" fill="#00c395" fill-rule="evenodd"/>
    <path id="path4" d="M212.553,157.129c-12.954,12.941-23.781,23.808-24.06,24.15-.434.531.291,1.423,5.016,6.171,6.519,6.551,7.291,7.859,7.291,12.35,0,5.409,3.317,1.751-50.6,55.8-26.885,26.95-49.31,49.72-49.834,50.6a9.54,9.54,0,0,0-.2,8c1.072,2.254,38.255,39.411,40.439,40.41a8.794,8.794,0,0,0,7.43.2c2.19-1.092,148.495-147.117,150.484-150.2a8.337,8.337,0,0,0-.057-9.32c-1.479-2.3-61.02-61.689-61.851-61.689-.275,0-11.1,10.588-24.053,23.529M274.3,171.144c24.95,24.935,25.067,25.07,25.062,28.856-.005,3.922,2.276,1.527-75.691,79.477C148.57,354.558,147.9,355.2,144.956,355.2c-3.836,0-3.449.326-24.412-20.589C98.385,312.5,98.869,313.115,100,308.626c.749-2.989-.49-1.7,51.387-53.584,53.36-53.371,49.932-49.576,49.9-55.242l-.016-3.2,24.463-24.5c13.455-13.475,24.585-24.5,24.734-24.5s10.872,10.6,23.829,23.544" transform="translate(689.91 664.538) rotate(180)" fill="#00c395" fill-rule="evenodd"/>
    <path id="path0-2" data-name="path0" d="M140.6,45.493c-1.505.762-37.81,36.86-39.533,39.307a8.9,8.9,0,0,0,0,9.6c.7.99,20.53,21.046,44.069,44.568l42.8,42.769,21.775-21.769c11.976-11.972,22.94-22.879,24.364-24.237l2.59-2.469-43.634-43.6c-32.158-32.133-44.04-43.765-45.182-44.231a11.273,11.273,0,0,0-7.251.062m103,94.707c3.625,3.63,6.681,6.6,6.791,6.6s-2.766-2.97-6.391-6.6-6.681-6.6-6.791-6.6,2.766,2.97,6.391,6.6" transform="translate(402.655 373.136)" fill="#0087ff" fill-rule="evenodd"/>
    <path id="path2-2" data-name="path2" d="M225.734,172.1l-24.463,24.5.016,3.2c.027,5.666,3.455,1.871-49.9,55.242-57.253,57.265-52.933,52.389-51.2,57.784.977,3.032,38.841,41.059,41.707,41.885a7.449,7.449,0,0,0,6.133-.411c2.352-1.244,149.247-148.107,150.455-150.423a9.371,9.371,0,0,0,.127-7.633c-.685-1.415-47.425-48.644-48.141-48.644-.149,0-11.279,11.025-24.734,24.5" transform="translate(402.655 373.136)" fill="#0087ff" fill-rule="evenodd"/>
    <path id="path4-2" data-name="path4" d="M212.553,157.129c-12.954,12.941-23.781,23.808-24.06,24.15-.434.531.291,1.423,5.016,6.171,6.519,6.551,7.291,7.859,7.291,12.35,0,5.409,3.317,1.751-50.6,55.8-26.885,26.95-49.31,49.72-49.834,50.6a9.54,9.54,0,0,0-.2,8c1.072,2.254,38.255,39.411,40.439,40.41a8.794,8.794,0,0,0,7.43.2c2.19-1.092,148.495-147.117,150.484-150.2a8.337,8.337,0,0,0-.057-9.32c-1.479-2.3-61.02-61.689-61.851-61.689-.275,0-11.1,10.588-24.053,23.529M274.3,171.144c24.95,24.935,25.067,25.07,25.062,28.856-.005,3.922,2.276,1.527-75.691,79.477C148.57,354.558,147.9,355.2,144.956,355.2c-3.836,0-3.449.326-24.412-20.589C98.385,312.5,98.869,313.115,100,308.626c.749-2.989-.49-1.7,51.387-53.584,53.36-53.371,49.932-49.576,49.9-55.242l-.016-3.2,24.463-24.5c13.455-13.475,24.585-24.5,24.734-24.5s10.872,10.6,23.829,23.544" transform="translate(402.655 373.136)" fill="#0087ff" fill-rule="evenodd"/>
  </g>
</svg>
